<svg width="205" height="22" viewBox="0 0 205 22" fill="none" xmlns="http://www.w3.org/2000/svg">
<path d="M132.296 1.61988C136.08 0.0956818 140.609 0.57132 143.993 2.81978C144.836 3.34947 145.582 4.03049 146.274 4.74394C145.366 5.64117 144.36 6.45191 143.431 7.33832C142.134 6.07356 140.566 5.04662 138.772 4.65746C136.923 4.26831 134.912 4.43046 133.248 5.3493C131.54 6.28976 130.189 7.93287 129.832 9.85703C129.508 11.619 129.778 13.5324 130.805 15.035C131.907 16.7105 133.831 17.7375 135.81 17.9969C137.399 18.1915 139.063 18.0185 140.512 17.3051C141.593 16.7754 142.533 15.9971 143.42 15.1863C144.35 16.1052 145.279 17.0132 146.198 17.932C144.825 19.1752 143.323 20.3426 141.571 21.0129C139.572 21.7804 137.388 21.8993 135.269 21.7155C132.794 21.4669 130.362 20.4507 128.61 18.6779C127.032 17.2078 126.027 15.1755 125.724 13.0568C125.389 10.6678 125.681 8.12744 126.946 6.04113C128.145 3.99806 130.124 2.50629 132.296 1.61988Z" fill="#56585B"/>
<path d="M157.764 0.885526C160.305 0.496367 163.007 0.842283 165.256 2.12866C167.558 3.46909 169.493 5.57702 170.293 8.12816C170.898 10.1064 170.909 12.2684 170.369 14.2574C169.612 16.8842 167.677 19.0786 165.31 20.419C162.834 21.8351 159.807 22.0729 157.029 21.5324C153.851 20.8839 151.105 18.6678 149.635 15.8356C148.673 13.9655 148.414 11.7927 148.695 9.72803C148.997 7.55524 150.068 5.52297 151.635 3.97716C153.289 2.35567 155.473 1.26387 157.764 0.885526ZM158.035 4.61494C156.219 4.98248 154.608 6.14995 153.646 7.69577C152.651 9.31725 152.467 11.3387 152.911 13.1548C153.657 16.1491 156.802 18.1922 159.861 18.0625C162.964 18.1273 165.904 15.7708 166.51 12.7656C166.812 11.209 166.661 9.54426 165.904 8.12816C165.18 6.80935 164.034 5.71755 162.661 5.07977C161.223 4.42036 159.57 4.32307 158.035 4.61494Z" fill="#56585B"/>
<path d="M0.00480533 1.24231C1.72358 1.25312 3.43155 1.24231 5.15032 1.25312C6.64209 1.31798 8.23114 1.57742 9.39861 2.58274C11.1498 4.00965 11.5606 6.73374 10.3499 8.61467C9.87425 9.37136 9.1608 9.94428 8.38248 10.3551C9.69048 10.7766 11.0093 11.4144 11.8092 12.5711C12.7497 13.825 12.9443 15.4898 12.5767 16.9707C12.1768 18.5057 11.0093 19.7813 9.604 20.5056C8.55544 21.0244 7.38797 21.2731 6.2205 21.2839C4.145 21.2839 2.0695 21.2839 0.00480533 21.2839C0.00480533 14.6034 -0.00600666 7.92283 0.00480533 1.24231ZM2.12355 3.20971C2.12355 5.35008 2.11274 7.47963 2.12355 9.61999C3.43155 9.59837 4.77197 9.64161 6.05835 9.37136C7.27987 9.11192 8.36086 8.2147 8.70678 7.0148C8.92298 6.1392 8.84731 5.12307 8.23114 4.40961C7.60417 3.66373 6.60966 3.38267 5.6692 3.28538C4.49091 3.18809 3.30183 3.20971 2.12355 3.20971ZM2.12355 11.6522C2.12355 14.2034 2.11274 16.7653 2.12355 19.3165C3.2694 19.3273 4.40444 19.3273 5.55029 19.284C6.59885 19.2408 7.71227 19.1651 8.64192 18.6354C9.78777 18.0193 10.6093 16.7545 10.5228 15.4357C10.512 14.1818 9.65805 13.0359 8.56625 12.463C7.32311 11.7712 5.86377 11.7171 4.4693 11.6847C3.69098 11.7063 2.90186 11.6198 2.12355 11.6522Z" fill="#9DA0A6"/>
<path d="M17.0303 1.26369C21.0948 1.23126 25.1701 1.26369 29.2347 1.25288C29.2455 1.90148 29.2347 2.56088 29.2347 3.20947C25.8728 3.20947 22.5217 3.20947 19.1598 3.20947C19.1598 5.3066 19.1598 7.39291 19.1598 9.49003C22.4785 9.49003 25.8079 9.49003 29.1374 9.49003C29.1374 10.1386 29.1374 10.798 29.1374 11.4466C25.8079 11.4466 22.4785 11.4466 19.1598 11.4466C19.1598 14.0734 19.1598 16.7002 19.1598 19.3162C22.4785 19.327 25.8079 19.327 29.1266 19.3162C29.1482 19.9756 29.1374 20.6242 29.1374 21.2836C25.1053 21.2836 21.0732 21.2836 17.0411 21.2836C17.0303 14.6139 17.0519 7.9334 17.0303 1.26369Z" fill="#9DA0A6"/>
<path d="M41.0387 1.24231C41.2117 1.24231 41.3846 1.24231 41.5684 1.24231C44.9195 7.90121 48.184 14.6034 51.5135 21.2839C50.7244 21.2731 49.9244 21.3055 49.1353 21.2623C48.0651 19.0678 46.9301 16.8951 45.8383 14.7115C42.7899 14.7006 39.7415 14.7115 36.6823 14.7006C35.5797 16.8951 34.4771 19.0895 33.3853 21.2839C32.5745 21.2839 31.7638 21.2839 30.9639 21.2839C34.3257 14.6034 37.6444 7.90121 41.0387 1.24231ZM37.666 12.7441C40.0766 12.7549 42.4872 12.7441 44.8978 12.7441C43.6871 10.3443 42.5088 7.93364 41.2873 5.54465C40.0658 7.93364 38.8767 10.3443 37.666 12.7441Z" fill="#9DA0A6"/>
<path d="M54.8433 1.2524C55.546 1.28483 56.2919 1.17673 56.9513 1.29564C56.9729 5.21963 56.9513 9.13282 56.9621 13.0568C57.0594 14.4405 56.8216 15.889 57.3945 17.2078C57.7404 18.105 58.5403 18.7753 59.4051 19.186C60.8104 19.8779 62.5292 20.04 63.9777 19.3914C65.0911 18.9266 66.01 17.9969 66.4208 16.8727C66.7018 16.1701 66.7342 15.3918 66.7667 14.6459C66.8423 10.1814 66.7883 5.71689 66.8099 1.2524C67.5234 1.26321 68.226 1.23078 68.9395 1.26321C68.907 4.57104 68.9395 7.87887 68.9287 11.1867C68.8962 13.273 69.0692 15.4026 68.4638 17.4348C68.0206 19.0347 66.7667 20.3319 65.3073 21.0886C63.9345 21.802 62.3238 21.8885 60.8104 21.7264C58.9511 21.4994 57.1134 20.6238 56 19.0996C55.5136 18.451 55.1893 17.7051 55.0487 16.916C54.7677 15.3269 54.8542 13.7162 54.8433 12.1164C54.8433 8.49504 54.8433 4.87372 54.8433 1.2524Z" fill="#9DA0A6"/>
<path d="M72.0204 1.24231C75.8796 1.25312 79.7495 1.24231 83.6086 1.25312C83.6086 1.90171 83.6086 2.55031 83.6086 3.20971C82.0304 3.20971 80.4522 3.20971 78.8739 3.20971C78.8739 9.23083 78.8523 15.2519 78.8847 21.2731C78.1713 21.2947 77.4686 21.2731 76.7552 21.2839C76.7552 15.2628 76.7552 9.24164 76.7552 3.20971C75.1769 3.20971 73.5987 3.20971 72.0204 3.20971C72.0204 2.55031 72.0096 1.90171 72.0204 1.24231Z" fill="#9DA0A6"/>
<path d="M85.0684 1.25211C85.9115 1.25211 86.7547 1.2305 87.5871 1.26292C89.1329 3.6411 90.7111 5.99766 92.2569 8.37584C92.5272 8.74338 92.7326 9.16497 93.0461 9.50007C94.8189 6.75436 96.6025 4.01945 98.3645 1.26292C99.1969 1.2305 100.04 1.25211 100.872 1.25211C98.7321 4.58157 96.5809 7.90021 94.4297 11.2297C94.2892 11.4567 94.0622 11.6837 94.0946 11.9755C94.0946 15.078 94.0946 18.1804 94.0946 21.2829C93.392 21.2829 92.6785 21.2829 91.9759 21.2829C91.9651 18.1048 91.9975 14.9266 91.9543 11.7485C89.695 8.2245 87.3493 4.76533 85.0684 1.25211Z" fill="#9DA0A6"/>
<path d="M174.649 1.25339C175.99 1.25339 177.33 1.25339 178.671 1.25339C178.682 6.71239 178.671 12.1714 178.671 17.6304C180.66 17.6304 182.638 17.6196 184.627 17.6412C184.616 18.8519 184.627 20.0626 184.627 21.2841C181.298 21.2841 177.968 21.2841 174.639 21.2841C174.649 14.6036 174.639 7.9231 174.649 1.25339Z" fill="#56585B"/>
<path d="M187.719 1.25211C189.805 1.25211 191.902 1.2305 193.999 1.26292C196.226 1.38183 198.593 1.60884 200.474 2.91684C202.744 4.5059 204.182 7.1327 204.496 9.8568C204.744 11.9539 204.571 14.1483 203.663 16.0833C202.701 18.2777 200.799 20.0722 198.475 20.7856C197.112 21.1748 195.686 21.218 194.269 21.2829C192.086 21.2829 189.902 21.2829 187.719 21.2829C187.719 14.6024 187.708 7.92183 187.719 1.25211ZM191.751 4.97072C191.751 9.16497 191.751 13.3592 191.751 17.5643C193.437 17.5426 195.156 17.6291 196.81 17.24C197.837 17.013 198.734 16.3536 199.329 15.5104C200.204 14.3429 200.528 12.862 200.485 11.4351C200.518 9.88923 200.107 8.27855 199.091 7.06784C198.42 6.22467 197.437 5.68418 196.41 5.39231C194.907 4.93829 193.307 4.98153 191.751 4.97072Z" fill="#56585B"/>
<path d="M107.433 3.60932C108.417 2.45266 109.974 1.90136 111.476 1.9446C112.817 1.90136 114.2 2.33375 115.184 3.2526C115.779 3.84714 116.2 4.63626 116.211 5.47944C116.276 6.64691 115.627 7.7279 114.871 8.58188C114.157 9.3602 113.346 10.052 112.525 10.7114C114.265 12.4518 116.027 14.1814 117.811 15.8786C118.73 15.2516 119.616 14.5706 120.492 13.8895C120.989 14.3868 121.529 14.8516 121.983 15.3921C121.119 16.0515 120.265 16.7217 119.357 17.3379C120.762 18.6243 122.2 19.889 123.497 21.2835C122.481 21.2835 121.465 21.2835 120.459 21.2835C119.53 20.3863 118.6 19.4891 117.67 18.5919C115.887 19.889 114.017 21.2403 111.79 21.6186C110.395 21.8564 108.914 21.8997 107.552 21.4565C106.19 20.9808 105.001 19.8999 104.59 18.5162C104.147 17.0568 104.493 15.4354 105.369 14.1922C106.439 12.6464 107.974 11.5114 109.455 10.3763C108.579 9.29533 107.574 8.25758 107.023 6.94958C106.579 5.86859 106.655 4.51736 107.433 3.60932ZM109.195 4.79841C108.763 5.3281 108.849 6.10641 109.195 6.65772C109.747 7.57656 110.449 8.39811 111.174 9.18724C112.136 8.46297 113.098 7.67385 113.725 6.63609C114.049 6.11722 114.233 5.38215 113.822 4.86328C113.271 4.09577 112.244 3.85795 111.336 3.90119C110.536 3.89038 109.703 4.17144 109.195 4.79841ZM107.92 14.3111C107.185 15.0894 106.493 16.0623 106.558 17.1649C106.579 18.073 107.239 18.8189 107.963 19.2945C109.12 20.0296 110.601 19.9755 111.865 19.5864C113.433 19.0351 114.817 18.0946 116.146 17.1217C114.373 15.4137 112.557 13.749 110.903 11.9221C109.855 12.6572 108.839 13.4247 107.92 14.3111Z" fill="#56585B"/>
</svg>
