<svg version="1.1" xmlns="http://www.w3.org/2000/svg" xmlns:xlink="http://www.w3.org/1999/xlink">

    <symbol id="logo" viewBox="0 0 205 22" fill="none" xmlns="http://www.w3.org/2000/svg">
        <path d="M132.296 1.61988C136.08 0.0956818 140.609 0.57132 143.993 2.81978C144.836 3.34947 145.582 4.03049 146.274 4.74394C145.366 5.64117 144.36 6.45191 143.431 7.33832C142.134 6.07356 140.566 5.04662 138.772 4.65746C136.923 4.26831 134.912 4.43046 133.248 5.3493C131.54 6.28976 130.189 7.93287 129.832 9.85703C129.508 11.619 129.778 13.5324 130.805 15.035C131.907 16.7105 133.831 17.7375 135.81 17.9969C137.399 18.1915 139.063 18.0185 140.512 17.3051C141.593 16.7754 142.533 15.9971 143.42 15.1863C144.35 16.1052 145.279 17.0132 146.198 17.932C144.825 19.1752 143.323 20.3426 141.571 21.0129C139.572 21.7804 137.388 21.8993 135.269 21.7155C132.794 21.4669 130.362 20.4507 128.61 18.6779C127.032 17.2078 126.027 15.1755 125.724 13.0568C125.389 10.6678 125.681 8.12744 126.946 6.04113C128.145 3.99806 130.124 2.50629 132.296 1.61988Z" fill="#56585B"/>
        <path d="M157.764 0.885526C160.305 0.496367 163.007 0.842283 165.256 2.12866C167.558 3.46909 169.493 5.57702 170.293 8.12816C170.898 10.1064 170.909 12.2684 170.369 14.2574C169.612 16.8842 167.677 19.0786 165.31 20.419C162.834 21.8351 159.807 22.0729 157.029 21.5324C153.851 20.8839 151.105 18.6678 149.635 15.8356C148.673 13.9655 148.414 11.7927 148.695 9.72803C148.997 7.55524 150.068 5.52297 151.635 3.97716C153.289 2.35567 155.473 1.26387 157.764 0.885526ZM158.035 4.61494C156.219 4.98248 154.608 6.14995 153.646 7.69577C152.651 9.31725 152.467 11.3387 152.911 13.1548C153.657 16.1491 156.802 18.1922 159.861 18.0625C162.964 18.1273 165.904 15.7708 166.51 12.7656C166.812 11.209 166.661 9.54426 165.904 8.12816C165.18 6.80935 164.034 5.71755 162.661 5.07977C161.223 4.42036 159.57 4.32307 158.035 4.61494Z" fill="#56585B"/>
        <path d="M0.00480533 1.24231C1.72358 1.25312 3.43155 1.24231 5.15032 1.25312C6.64209 1.31798 8.23114 1.57742 9.39861 2.58274C11.1498 4.00965 11.5606 6.73374 10.3499 8.61467C9.87425 9.37136 9.1608 9.94428 8.38248 10.3551C9.69048 10.7766 11.0093 11.4144 11.8092 12.5711C12.7497 13.825 12.9443 15.4898 12.5767 16.9707C12.1768 18.5057 11.0093 19.7813 9.604 20.5056C8.55544 21.0244 7.38797 21.2731 6.2205 21.2839C4.145 21.2839 2.0695 21.2839 0.00480533 21.2839C0.00480533 14.6034 -0.00600666 7.92283 0.00480533 1.24231ZM2.12355 3.20971C2.12355 5.35008 2.11274 7.47963 2.12355 9.61999C3.43155 9.59837 4.77197 9.64161 6.05835 9.37136C7.27987 9.11192 8.36086 8.2147 8.70678 7.0148C8.92298 6.1392 8.84731 5.12307 8.23114 4.40961C7.60417 3.66373 6.60966 3.38267 5.6692 3.28538C4.49091 3.18809 3.30183 3.20971 2.12355 3.20971ZM2.12355 11.6522C2.12355 14.2034 2.11274 16.7653 2.12355 19.3165C3.2694 19.3273 4.40444 19.3273 5.55029 19.284C6.59885 19.2408 7.71227 19.1651 8.64192 18.6354C9.78777 18.0193 10.6093 16.7545 10.5228 15.4357C10.512 14.1818 9.65805 13.0359 8.56625 12.463C7.32311 11.7712 5.86377 11.7171 4.4693 11.6847C3.69098 11.7063 2.90186 11.6198 2.12355 11.6522Z" fill="#9DA0A6"/>
        <path d="M17.0303 1.26369C21.0948 1.23126 25.1701 1.26369 29.2347 1.25288C29.2455 1.90148 29.2347 2.56088 29.2347 3.20947C25.8728 3.20947 22.5217 3.20947 19.1598 3.20947C19.1598 5.3066 19.1598 7.39291 19.1598 9.49003C22.4785 9.49003 25.8079 9.49003 29.1374 9.49003C29.1374 10.1386 29.1374 10.798 29.1374 11.4466C25.8079 11.4466 22.4785 11.4466 19.1598 11.4466C19.1598 14.0734 19.1598 16.7002 19.1598 19.3162C22.4785 19.327 25.8079 19.327 29.1266 19.3162C29.1482 19.9756 29.1374 20.6242 29.1374 21.2836C25.1053 21.2836 21.0732 21.2836 17.0411 21.2836C17.0303 14.6139 17.0519 7.9334 17.0303 1.26369Z" fill="#9DA0A6"/>
        <path d="M41.0387 1.24231C41.2117 1.24231 41.3846 1.24231 41.5684 1.24231C44.9195 7.90121 48.184 14.6034 51.5135 21.2839C50.7244 21.2731 49.9244 21.3055 49.1353 21.2623C48.0651 19.0678 46.9301 16.8951 45.8383 14.7115C42.7899 14.7006 39.7415 14.7115 36.6823 14.7006C35.5797 16.8951 34.4771 19.0895 33.3853 21.2839C32.5745 21.2839 31.7638 21.2839 30.9639 21.2839C34.3257 14.6034 37.6444 7.90121 41.0387 1.24231ZM37.666 12.7441C40.0766 12.7549 42.4872 12.7441 44.8978 12.7441C43.6871 10.3443 42.5088 7.93364 41.2873 5.54465C40.0658 7.93364 38.8767 10.3443 37.666 12.7441Z" fill="#9DA0A6"/>
        <path d="M54.8433 1.2524C55.546 1.28483 56.2919 1.17673 56.9513 1.29564C56.9729 5.21963 56.9513 9.13282 56.9621 13.0568C57.0594 14.4405 56.8216 15.889 57.3945 17.2078C57.7404 18.105 58.5403 18.7753 59.4051 19.186C60.8104 19.8779 62.5292 20.04 63.9777 19.3914C65.0911 18.9266 66.01 17.9969 66.4208 16.8727C66.7018 16.1701 66.7342 15.3918 66.7667 14.6459C66.8423 10.1814 66.7883 5.71689 66.8099 1.2524C67.5234 1.26321 68.226 1.23078 68.9395 1.26321C68.907 4.57104 68.9395 7.87887 68.9287 11.1867C68.8962 13.273 69.0692 15.4026 68.4638 17.4348C68.0206 19.0347 66.7667 20.3319 65.3073 21.0886C63.9345 21.802 62.3238 21.8885 60.8104 21.7264C58.9511 21.4994 57.1134 20.6238 56 19.0996C55.5136 18.451 55.1893 17.7051 55.0487 16.916C54.7677 15.3269 54.8542 13.7162 54.8433 12.1164C54.8433 8.49504 54.8433 4.87372 54.8433 1.2524Z" fill="#9DA0A6"/>
        <path d="M72.0204 1.24231C75.8796 1.25312 79.7495 1.24231 83.6086 1.25312C83.6086 1.90171 83.6086 2.55031 83.6086 3.20971C82.0304 3.20971 80.4522 3.20971 78.8739 3.20971C78.8739 9.23083 78.8523 15.2519 78.8847 21.2731C78.1713 21.2947 77.4686 21.2731 76.7552 21.2839C76.7552 15.2628 76.7552 9.24164 76.7552 3.20971C75.1769 3.20971 73.5987 3.20971 72.0204 3.20971C72.0204 2.55031 72.0096 1.90171 72.0204 1.24231Z" fill="#9DA0A6"/>
        <path d="M85.0684 1.25211C85.9115 1.25211 86.7547 1.2305 87.5871 1.26292C89.1329 3.6411 90.7111 5.99766 92.2569 8.37584C92.5272 8.74338 92.7326 9.16497 93.0461 9.50007C94.8189 6.75436 96.6025 4.01945 98.3645 1.26292C99.1969 1.2305 100.04 1.25211 100.872 1.25211C98.7321 4.58157 96.5809 7.90021 94.4297 11.2297C94.2892 11.4567 94.0622 11.6837 94.0946 11.9755C94.0946 15.078 94.0946 18.1804 94.0946 21.2829C93.392 21.2829 92.6785 21.2829 91.9759 21.2829C91.9651 18.1048 91.9975 14.9266 91.9543 11.7485C89.695 8.2245 87.3493 4.76533 85.0684 1.25211Z" fill="#9DA0A6"/>
        <path d="M174.649 1.25339C175.99 1.25339 177.33 1.25339 178.671 1.25339C178.682 6.71239 178.671 12.1714 178.671 17.6304C180.66 17.6304 182.638 17.6196 184.627 17.6412C184.616 18.8519 184.627 20.0626 184.627 21.2841C181.298 21.2841 177.968 21.2841 174.639 21.2841C174.649 14.6036 174.639 7.9231 174.649 1.25339Z" fill="#56585B"/>
        <path d="M187.719 1.25211C189.805 1.25211 191.902 1.2305 193.999 1.26292C196.226 1.38183 198.593 1.60884 200.474 2.91684C202.744 4.5059 204.182 7.1327 204.496 9.8568C204.744 11.9539 204.571 14.1483 203.663 16.0833C202.701 18.2777 200.799 20.0722 198.475 20.7856C197.112 21.1748 195.686 21.218 194.269 21.2829C192.086 21.2829 189.902 21.2829 187.719 21.2829C187.719 14.6024 187.708 7.92183 187.719 1.25211ZM191.751 4.97072C191.751 9.16497 191.751 13.3592 191.751 17.5643C193.437 17.5426 195.156 17.6291 196.81 17.24C197.837 17.013 198.734 16.3536 199.329 15.5104C200.204 14.3429 200.528 12.862 200.485 11.4351C200.518 9.88923 200.107 8.27855 199.091 7.06784C198.42 6.22467 197.437 5.68418 196.41 5.39231C194.907 4.93829 193.307 4.98153 191.751 4.97072Z" fill="#56585B"/>
        <path d="M107.433 3.60932C108.417 2.45266 109.974 1.90136 111.476 1.9446C112.817 1.90136 114.2 2.33375 115.184 3.2526C115.779 3.84714 116.2 4.63626 116.211 5.47944C116.276 6.64691 115.627 7.7279 114.871 8.58188C114.157 9.3602 113.346 10.052 112.525 10.7114C114.265 12.4518 116.027 14.1814 117.811 15.8786C118.73 15.2516 119.616 14.5706 120.492 13.8895C120.989 14.3868 121.529 14.8516 121.983 15.3921C121.119 16.0515 120.265 16.7217 119.357 17.3379C120.762 18.6243 122.2 19.889 123.497 21.2835C122.481 21.2835 121.465 21.2835 120.459 21.2835C119.53 20.3863 118.6 19.4891 117.67 18.5919C115.887 19.889 114.017 21.2403 111.79 21.6186C110.395 21.8564 108.914 21.8997 107.552 21.4565C106.19 20.9808 105.001 19.8999 104.59 18.5162C104.147 17.0568 104.493 15.4354 105.369 14.1922C106.439 12.6464 107.974 11.5114 109.455 10.3763C108.579 9.29533 107.574 8.25758 107.023 6.94958C106.579 5.86859 106.655 4.51736 107.433 3.60932ZM109.195 4.79841C108.763 5.3281 108.849 6.10641 109.195 6.65772C109.747 7.57656 110.449 8.39811 111.174 9.18724C112.136 8.46297 113.098 7.67385 113.725 6.63609C114.049 6.11722 114.233 5.38215 113.822 4.86328C113.271 4.09577 112.244 3.85795 111.336 3.90119C110.536 3.89038 109.703 4.17144 109.195 4.79841ZM107.92 14.3111C107.185 15.0894 106.493 16.0623 106.558 17.1649C106.579 18.073 107.239 18.8189 107.963 19.2945C109.12 20.0296 110.601 19.9755 111.865 19.5864C113.433 19.0351 114.817 18.0946 116.146 17.1217C114.373 15.4137 112.557 13.749 110.903 11.9221C109.855 12.6572 108.839 13.4247 107.92 14.3111Z" fill="#56585B"/>
    </symbol>

    <symbol id="whatsapp" width="20" height="20" viewBox="0 0 20 20" fill="none" xmlns="http://www.w3.org/2000/svg">
        <ellipse cx="10" cy="10.5" rx="8" ry="7.5" fill="white"/>
        <path d="M10 0C4.478 0 0 4.478 0 10C0 15.522 4.478 20 10 20C15.522 20 20 15.522 20 10C20 4.478 15.522 0 10 0ZM10.2119 15.8223C10.2118 15.8223 10.2121 15.8223 10.2119 15.8223H10.2095C9.20776 15.8218 8.22342 15.5707 7.34924 15.094L4.17648 15.9261L5.02563 12.8255C4.5018 11.9182 4.22623 10.8888 4.22668 9.83429C4.22806 6.53534 6.91299 3.85147 10.2119 3.85147C11.8129 3.85208 13.3157 4.47525 14.4456 5.60608C15.5757 6.73706 16.1977 8.24036 16.1971 9.83902C16.1957 13.1381 13.5104 15.8223 10.2119 15.8223Z" fill="#C2B697"/>
        <path d="M10.2141 4.8623C7.47013 4.8623 5.23853 7.09299 5.2373 9.83499C5.237 10.7746 5.50006 11.6897 5.99796 12.4815L6.11621 12.6696L5.61359 14.5048L7.49637 14.011L7.6781 14.1187C8.44181 14.5719 9.31736 14.8116 10.21 14.812H10.212C12.9538 14.812 15.1854 12.5811 15.1867 9.83896C15.1871 8.51007 14.6701 7.26068 13.731 6.32074C12.7918 5.3808 11.5427 4.86276 10.2141 4.8623ZM13.1401 11.9731C13.0155 12.3222 12.4181 12.6409 12.1308 12.684C11.8731 12.7224 11.5471 12.7384 11.1888 12.6248C10.9716 12.5558 10.6931 12.4638 10.3362 12.3098C8.83609 11.6622 7.85633 10.1522 7.78156 10.0524C7.70679 9.95264 7.1709 9.24173 7.1709 8.5058C7.1709 7.77002 7.55725 7.40823 7.69428 7.2587C7.83145 7.10901 7.9935 7.07162 8.09314 7.07162C8.19278 7.07162 8.29257 7.07254 8.3797 7.07681C8.47156 7.08139 8.59485 7.04187 8.71616 7.33347C8.84082 7.63284 9.1399 8.36862 9.17728 8.44339C9.21466 8.51831 9.23954 8.60559 9.18979 8.70538C9.1399 8.80518 8.97418 9.02048 8.81595 9.21671C8.74958 9.29895 8.66306 9.37219 8.75034 9.52188C8.83747 9.67142 9.13776 10.1611 9.58225 10.5575C10.1535 11.0668 10.6354 11.2246 10.7849 11.2995C10.9343 11.3743 11.0216 11.3618 11.1089 11.2621C11.196 11.1624 11.4827 10.8256 11.5824 10.6759C11.682 10.5262 11.7818 10.5512 11.9188 10.6011C12.056 10.6509 12.7912 11.0127 12.9407 11.0874C13.0902 11.1624 13.1899 11.1997 13.2273 11.2621C13.2648 11.3246 13.2648 11.6238 13.1401 11.9731Z" fill="#C2B697"/>
    </symbol>

    <symbol id="telegram" width="20" height="20" viewBox="0 0 20 20" fill="none" xmlns="http://www.w3.org/2000/svg">
        <path d="M10 20C15.5228 20 20 15.5228 20 10C20 4.47715 15.5228 0 10 0C4.47715 0 0 4.47715 0 10C0 15.5228 4.47715 20 10 20Z" fill="#C2B697"/>
        <path d="M4.57556 9.78351L14.2172 6.06601C14.6647 5.90434 15.0556 6.17517 14.9106 6.85184L14.9114 6.85101L13.2697 14.5852C13.1481 15.1335 12.8222 15.2668 12.3664 15.0085L9.8664 13.166L8.66057 14.3277C8.52724 14.461 8.41474 14.5735 8.1564 14.5735L8.3339 12.0293L12.9672 7.84351C13.1689 7.66601 12.9222 7.56601 12.6564 7.74267L6.93057 11.3477L4.46223 10.5777C3.9264 10.4077 3.91473 10.0418 4.57556 9.78351Z" fill="white"/>
    </symbol>

    <symbol id="logo-footer" width="243" height="48" viewBox="0 0 243 48" fill="none" xmlns="http://www.w3.org/2000/svg">
        <path d="M157.108 1.37974C161.58 -0.422004 166.934 0.140246 170.934 2.79815C171.93 3.42428 172.812 4.22932 173.63 5.07269C172.557 6.1333 171.368 7.09167 170.269 8.1395C168.736 6.64443 166.883 5.43049 164.762 4.97047C162.577 4.51045 160.2 4.70212 158.232 5.78828C156.213 6.9 154.616 8.84231 154.194 11.1169C153.811 13.1997 154.13 15.4615 155.344 17.2377C156.647 19.2183 158.922 20.4323 161.26 20.739C163.139 20.969 165.107 20.7645 166.819 19.9212C168.097 19.295 169.209 18.375 170.256 17.4166C171.355 18.5028 172.454 19.5761 173.54 20.6623C171.918 22.1318 170.141 23.5119 168.071 24.3041C165.707 25.2114 163.126 25.352 160.622 25.1347C157.695 24.8408 154.82 23.6397 152.75 21.544C150.884 19.8061 149.696 17.4038 149.338 14.8993C148.942 12.0752 149.287 9.07232 150.782 6.6061C152.201 4.19099 154.539 2.42757 157.108 1.37974Z" fill="#AAB0B8"/>
        <path d="M187.214 0.511395C190.217 0.0513706 193.411 0.460277 196.069 1.9809C198.791 3.56542 201.078 6.0572 202.024 9.07289C202.739 11.4113 202.752 13.967 202.113 16.3182C201.219 19.4234 198.931 22.0174 196.133 23.6019C193.207 25.2759 189.629 25.557 186.345 24.9181C182.588 24.1514 179.342 21.5318 177.604 18.1839C176.467 15.9732 176.16 13.4048 176.493 10.9641C176.85 8.39564 178.115 5.99331 179.968 4.166C181.923 2.24925 184.505 0.958635 187.214 0.511395ZM187.533 4.91993C185.386 5.35439 183.482 6.73445 182.345 8.56176C181.169 10.4785 180.952 12.8681 181.476 15.0148C182.358 18.5544 186.076 20.9695 189.693 20.8162C193.36 20.8929 196.836 18.1072 197.551 14.5548C197.909 12.7147 197.73 10.7469 196.836 9.07289C195.98 7.51393 194.625 6.22332 193.002 5.46939C191.303 4.68991 189.348 4.57491 187.533 4.91993Z" fill="#AAB0B8"/>
        <path d="M0.726383 0.933105C2.75814 0.945883 4.77712 0.933106 6.80888 0.945884C8.5723 1.02256 10.4507 1.32924 11.8308 2.51762C13.9009 4.20437 14.3865 7.42451 12.9553 9.64795C12.393 10.5424 11.5497 11.2197 10.6296 11.7053C12.1758 12.2036 13.7348 12.9575 14.6804 14.3248C15.7921 15.8071 16.0221 17.775 15.5876 19.5256C15.1148 21.3401 13.7348 22.848 12.0736 23.7041C10.8341 24.3175 9.45401 24.6114 8.07394 24.6242C5.62049 24.6242 3.16705 24.6242 0.726383 24.6242C0.726383 16.7272 0.713603 8.83013 0.726383 0.933105ZM3.23094 3.25877C3.23094 5.78888 3.21816 8.30622 3.23094 10.8363C4.77712 10.8108 6.36164 10.8619 7.88227 10.5424C9.32622 10.2358 10.6041 9.17515 11.013 7.75675C11.2685 6.7217 11.1791 5.52054 10.4507 4.67717C9.70957 3.79546 8.53396 3.46322 7.42224 3.34822C6.0294 3.23321 4.62378 3.25877 3.23094 3.25877ZM3.23094 13.2387C3.23094 16.2544 3.21816 19.2828 3.23094 22.2985C4.58545 22.3113 5.92717 22.3113 7.28168 22.2602C8.52118 22.2091 9.83735 22.1196 10.9363 21.4935C12.2908 20.7651 13.262 19.2701 13.1597 17.7111C13.147 16.2288 12.1375 14.8743 10.8468 14.197C9.37733 13.3792 7.65225 13.3153 6.00385 13.277C5.0838 13.3026 4.15098 13.2003 3.23094 13.2387Z" fill="#E3E5E9"/>
        <path d="M20.8525 0.958962C25.6572 0.920629 30.4746 0.958961 35.2793 0.946184C35.2921 1.71289 35.2793 2.49237 35.2793 3.25907C31.3052 3.25907 27.3439 3.25907 23.3699 3.25907C23.3699 5.73807 23.3699 8.20429 23.3699 10.6833C27.2928 10.6833 31.2286 10.6833 35.1643 10.6833C35.1643 11.45 35.1643 12.2295 35.1643 12.9962C31.2286 12.9962 27.2928 12.9962 23.3699 12.9962C23.3699 16.1013 23.3699 19.2065 23.3699 22.2988C27.2928 22.3116 31.2286 22.3116 35.1515 22.2988C35.1771 23.0783 35.1643 23.845 35.1643 24.6245C30.398 24.6245 25.6316 24.6245 20.8653 24.6245C20.8525 16.7402 20.8781 8.84321 20.8525 0.958962Z" fill="#E3E5E9"/>
        <path d="M49.2327 0.933105C49.4371 0.933105 49.6416 0.933105 49.8588 0.933105C53.8201 8.80458 57.6792 16.7272 61.6149 24.6242C60.6821 24.6114 59.7365 24.6497 58.8037 24.5986C57.5386 22.0046 56.1969 19.4362 54.9063 16.8549C51.3028 16.8422 47.6993 16.8549 44.083 16.8422C42.7796 19.4362 41.4762 22.0302 40.1856 24.6242C39.2272 24.6242 38.2688 24.6242 37.3232 24.6242C41.2973 16.7272 45.2203 8.80458 49.2327 0.933105ZM45.2458 14.5293C48.0954 14.5421 50.945 14.5293 53.7945 14.5293C52.3634 11.6925 50.9705 8.84291 49.5266 6.01889C48.0826 8.84291 46.677 11.6925 45.2458 14.5293Z" fill="#E3E5E9"/>
        <path d="M65.5512 0.944946C66.3818 0.983282 67.2635 0.855496 68.043 0.996059C68.0685 5.6346 68.043 10.2604 68.0557 14.8989C68.1708 16.5345 67.8896 18.2468 68.5669 19.8058C68.9758 20.8664 69.9214 21.6587 70.9437 22.1442C72.6048 22.9621 74.6366 23.1537 76.3489 22.387C77.6651 21.8376 78.7512 20.7386 79.2368 19.4097C79.5691 18.5791 79.6074 17.659 79.6457 16.7773C79.7352 11.4999 79.6713 6.22241 79.6968 0.944946C80.5402 0.957723 81.3708 0.919391 82.2142 0.957724C82.1758 4.8679 82.2142 8.77808 82.2014 12.6883C82.1631 15.1545 82.3675 17.6718 81.6519 20.0742C81.128 21.9654 79.6457 23.4988 77.9206 24.3932C76.2978 25.2366 74.3938 25.3388 72.6048 25.1472C70.407 24.8788 68.2346 23.8438 66.9185 22.042C66.3434 21.2753 65.9601 20.3936 65.794 19.4608C65.4617 17.5824 65.564 15.6784 65.5512 13.7872C65.5512 9.50645 65.5512 5.2257 65.5512 0.944946Z" fill="#E3E5E9"/>
        <path d="M85.8563 0.933105C90.4181 0.945883 94.9928 0.933106 99.5547 0.945884C99.5547 1.71259 99.5547 2.47929 99.5547 3.25877C97.689 3.25877 95.8234 3.25877 93.9577 3.25877C93.9577 10.3763 93.9322 17.4939 93.9705 24.6114C93.1272 24.637 92.2966 24.6114 91.4532 24.6242C91.4532 17.5066 91.4532 10.3891 91.4532 3.25877C89.5875 3.25877 87.7219 3.25877 85.8563 3.25877C85.8563 2.47929 85.8435 1.71258 85.8563 0.933105Z" fill="#E3E5E9"/>
        <path d="M101.279 0.944867C102.276 0.944867 103.273 0.919313 104.257 0.957646C106.084 3.76889 107.95 6.55457 109.777 9.36581C110.096 9.80027 110.339 10.2986 110.71 10.6948C112.805 7.44905 114.914 4.21613 116.997 0.957646C117.981 0.919313 118.977 0.944867 119.961 0.944867C117.431 4.8806 114.888 8.80356 112.345 12.7393C112.179 13.0076 111.911 13.276 111.949 13.621C111.949 17.2884 111.949 20.9558 111.949 24.6232C111.119 24.6232 110.275 24.6232 109.445 24.6232C109.432 20.8663 109.47 17.1095 109.419 13.3527C106.748 9.18691 103.976 5.09783 101.279 0.944867Z" fill="#E3E5E9"/>
        <path d="M207.173 0.946289C208.757 0.946289 210.342 0.946289 211.926 0.946289C211.939 7.39936 211.926 13.8524 211.926 20.3055C214.278 20.3055 216.616 20.2927 218.967 20.3183C218.955 21.7495 218.967 23.1806 218.967 24.6246C215.032 24.6246 211.096 24.6246 207.16 24.6246C207.173 16.7276 207.16 8.83054 207.173 0.946289Z" fill="#AAB0B8"/>
        <path d="M222.623 0.945356C225.089 0.945356 227.568 0.919801 230.047 0.958134C232.679 1.0987 235.478 1.36704 237.701 2.91322C240.385 4.79164 242.084 7.89678 242.455 11.1169C242.749 13.5959 242.544 16.1899 241.471 18.4773C240.334 21.0713 238.085 23.1925 235.337 24.0359C233.727 24.4959 232.041 24.547 230.367 24.6237C227.785 24.6237 225.204 24.6237 222.623 24.6237C222.623 16.7266 222.61 8.8296 222.623 0.945356ZM227.389 5.34111C227.389 10.2991 227.389 15.2571 227.389 20.2279C229.383 20.2023 231.414 20.3046 233.369 19.8446C234.583 19.5762 235.644 18.7967 236.347 17.8C237.382 16.42 237.765 14.6693 237.714 12.9826C237.752 11.1553 237.267 9.25129 236.066 7.82011C235.273 6.8234 234.111 6.18448 232.897 5.83947C231.12 5.30278 229.229 5.35389 227.389 5.34111Z" fill="#AAB0B8"/>
        <path d="M127.718 3.73111C128.88 2.36383 130.721 1.71214 132.497 1.76325C134.081 1.71214 135.717 2.22327 136.88 3.30943C137.583 4.01224 138.081 4.94506 138.094 5.94177C138.17 7.32184 137.404 8.59967 136.509 9.60917C135.666 10.5292 134.707 11.347 133.736 12.1265C135.794 14.1838 137.876 16.2284 139.985 18.2346C141.071 17.4934 142.119 16.6884 143.154 15.8833C143.742 16.4711 144.381 17.0206 144.917 17.6595C143.895 18.439 142.886 19.2313 141.812 19.9596C143.473 21.4803 145.173 22.9753 146.706 24.6237C145.505 24.6237 144.304 24.6237 143.116 24.6237C142.017 23.5631 140.918 22.5025 139.819 21.4419C137.71 22.9753 135.5 24.5726 132.867 25.0199C131.219 25.301 129.468 25.3521 127.858 24.8282C126.248 24.2659 124.842 22.9881 124.357 21.3525C123.833 19.6274 124.242 17.7106 125.277 16.2411C126.542 14.4138 128.357 13.0721 130.107 11.7304C129.072 10.4525 127.884 9.22581 127.232 7.67963C126.708 6.40179 126.798 4.8045 127.718 3.73111ZM129.8 5.13674C129.289 5.76288 129.392 6.68292 129.8 7.33461C130.452 8.42077 131.283 9.39193 132.139 10.3248C133.276 9.4686 134.413 8.53578 135.155 7.30905C135.538 6.69569 135.755 5.82677 135.27 5.21341C134.618 4.30615 133.404 4.02502 132.331 4.07613C131.385 4.06335 130.401 4.39559 129.8 5.13674ZM128.293 16.3817C127.424 17.3017 126.606 18.4518 126.683 19.7552C126.708 20.8286 127.488 21.7103 128.344 22.2725C129.711 23.1414 131.462 23.0776 132.957 22.6175C134.81 21.9658 136.445 20.8541 138.017 19.7041C135.921 17.6851 133.775 15.7172 131.819 13.5577C130.58 14.4266 129.379 15.3339 128.293 16.3817Z" fill="#AAB0B8"/>
        <path d="M4.36381 46.6212C3.81769 46.6212 3.3212 46.5237 2.87437 46.3287C2.43109 46.1336 2.05695 45.8535 1.75197 45.4882C1.44699 45.1229 1.23067 44.6832 1.103 44.169L1.70942 44.0041C1.89028 44.6389 2.21299 45.1371 2.67755 45.4988C3.14566 45.857 3.70243 46.0308 4.34786 46.0201C4.78405 46.0131 5.1901 45.9315 5.56601 45.7755C5.94192 45.6194 6.25576 45.373 6.50755 45.0361C6.75579 44.7062 6.92424 44.3658 7.0129 44.0147C7.1051 43.6636 7.15829 43.3019 7.17248 42.9296H4.3319V42.3338H7.17248C7.14056 41.7274 7.01289 41.1919 6.78948 40.7273C6.56961 40.2592 6.25576 39.8939 5.84794 39.6315C5.44011 39.3691 4.94009 39.2414 4.34786 39.2485C3.64924 39.2591 3.06587 39.4542 2.59776 39.8336C2.1332 40.2096 1.82822 40.7255 1.68282 41.3816L1.0498 41.2859C1.2413 40.4454 1.62962 39.7946 2.21476 39.3336C2.80345 38.8726 3.5198 38.6421 4.36381 38.6421C5.10854 38.6421 5.73623 38.8088 6.2469 39.1421C6.75756 39.4755 7.14588 39.9418 7.41185 40.5411C7.67782 41.1369 7.8179 41.8338 7.83209 42.6317C7.84627 43.3764 7.72215 44.0502 7.45973 44.6531C7.1973 45.2559 6.80544 45.7347 6.28413 46.0893C5.76283 46.4439 5.12272 46.6212 4.36381 46.6212Z" fill="#E3E5E9"/>
        <path d="M9.10626 46.4617V38.8017H9.718V42.4402L13.3618 38.8017H14.1704L10.5053 42.4827L14.4895 46.4617H13.6703L9.718 42.5466V46.4617H9.10626Z" fill="#E3E5E9"/>
        <path d="M18.1647 46.6212C17.4022 46.6212 16.7621 46.4528 16.2444 46.1159C15.7266 45.7755 15.3365 45.3056 15.0741 44.7062C14.8117 44.1069 14.6804 43.4154 14.6804 42.6317C14.6804 41.8479 14.8117 41.1564 15.0741 40.5571C15.3365 39.9578 15.7266 39.4897 16.2444 39.1528C16.7621 38.8123 17.4022 38.6421 18.1647 38.6421C19.0548 38.6421 19.7765 38.8726 20.3297 39.3336C20.8865 39.7946 21.2641 40.4117 21.4627 41.1848L20.8297 41.339C20.6666 40.6972 20.3616 40.1883 19.9148 39.8124C19.4715 39.4329 18.8881 39.2432 18.1647 39.2432C17.537 39.2432 17.0139 39.3868 16.5954 39.6741C16.1805 39.9613 15.8667 40.3603 15.6539 40.8709C15.4447 41.3816 15.3383 41.9685 15.3347 42.6317C15.3276 43.2948 15.4287 43.8817 15.6379 44.3924C15.8507 44.8995 16.1681 45.2985 16.5901 45.5893C17.0121 45.8765 17.537 46.0201 18.1647 46.0201C18.8881 46.0201 19.4715 45.8304 19.9148 45.451C20.3616 45.0715 20.6666 44.5626 20.8297 43.9243L21.4627 44.0786C21.2641 44.8516 20.8865 45.4687 20.3297 45.9297C19.7765 46.3907 19.0548 46.6212 18.1647 46.6212Z" fill="#E3E5E9"/>
        <path d="M22.8408 46.4617V38.8017H28.5911V46.4617H27.9794V39.3974H23.4525V46.4617H22.8408Z" fill="#E3E5E9"/>
        <path d="M30.2951 46.4617V38.8017H35.0294V39.3974H30.9068V42.3072H34.391V42.903H30.9068V45.8659H35.0294V46.4617H30.2951Z" fill="#E3E5E9"/>
        <path d="M36.5234 46.4617V38.8017H39.4118C39.4863 38.8017 39.5661 38.8052 39.6512 38.8123C39.7399 38.8159 39.8321 38.8265 39.9278 38.8442C40.3108 38.9045 40.6389 39.0428 40.9119 39.2591C41.1885 39.4719 41.3995 39.7414 41.5449 40.0677C41.6903 40.3904 41.763 40.7468 41.763 41.1369C41.763 41.5305 41.6903 41.8905 41.5449 42.2168C41.3995 42.5395 41.1885 42.809 40.9119 43.0253C40.6389 43.2381 40.3108 43.3746 39.9278 43.4349C39.8321 43.4491 39.7399 43.4597 39.6512 43.4668C39.5661 43.4739 39.4863 43.4775 39.4118 43.4775H37.1351V46.4617H36.5234ZM37.1351 42.8764H39.4012C39.465 42.8764 39.5377 42.8728 39.6193 42.8657C39.7044 42.8586 39.7895 42.848 39.8746 42.8338C40.1512 42.7771 40.3818 42.6654 40.5662 42.4987C40.7506 42.3285 40.8889 42.1245 40.9811 41.8869C41.0733 41.6493 41.1194 41.3993 41.1194 41.1369C41.1194 40.8745 41.0733 40.6262 40.9811 40.3922C40.8889 40.1546 40.7506 39.9524 40.5662 39.7858C40.3818 39.6155 40.1512 39.5021 39.8746 39.4453C39.7895 39.4276 39.7044 39.4152 39.6193 39.4081C39.5377 39.401 39.465 39.3974 39.4012 39.3974H37.1351V42.8764Z" fill="#E3E5E9"/>
        <path d="M45.1491 46.4617V39.3974H42.4043V38.8017H48.5057V39.3974H45.7608V46.4617H45.1491Z" fill="#E3E5E9"/>
        <path d="M51.5928 46.4617V38.8017H57.3431V46.4617H56.7314V39.3974H52.2045V46.4617H51.5928Z" fill="#E3E5E9"/>
        <path d="M62.1057 46.6212C61.3433 46.6212 60.7032 46.4528 60.1854 46.1159C59.6677 45.7755 59.2776 45.3056 59.0151 44.7062C58.7527 44.1069 58.6215 43.4154 58.6215 42.6317C58.6215 41.8479 58.7527 41.1564 59.0151 40.5571C59.2776 39.9578 59.6677 39.4897 60.1854 39.1528C60.7032 38.8123 61.3433 38.6421 62.1057 38.6421C62.8682 38.6421 63.5065 38.8123 64.0207 39.1528C64.5385 39.4897 64.9286 39.9578 65.191 40.5571C65.4534 41.1564 65.5846 41.8479 65.5846 42.6317C65.5846 43.4154 65.4534 44.1069 65.191 44.7062C64.9286 45.3056 64.5385 45.7755 64.0207 46.1159C63.5065 46.4528 62.8682 46.6212 62.1057 46.6212ZM62.1057 46.0201C62.7334 46.0237 63.2565 45.8818 63.675 45.5946C64.0934 45.3038 64.4073 44.9031 64.6165 44.3924C64.8257 43.8817 64.9304 43.2948 64.9304 42.6317C64.9304 41.9685 64.8257 41.3816 64.6165 40.8709C64.4073 40.3603 64.0934 39.9613 63.675 39.6741C63.2565 39.3868 62.7334 39.2432 62.1057 39.2432C61.478 39.2396 60.955 39.3815 60.5365 39.6687C60.1216 39.956 59.8095 40.3567 59.6003 40.8709C59.391 41.3816 59.2829 41.9685 59.2758 42.6317C59.2687 43.2948 59.3698 43.8817 59.579 44.3924C59.7918 44.8995 60.1092 45.2985 60.5312 45.5893C60.9532 45.8765 61.478 46.0201 62.1057 46.0201Z" fill="#E3E5E9"/>
        <path d="M69.2076 46.4617V38.8017H74.9579V46.4617H74.3462V39.3974H69.8193V46.4617H69.2076Z" fill="#E3E5E9"/>
        <path d="M76.6619 46.4617V38.8017H79.5503C79.6248 38.8017 79.7046 38.8052 79.7897 38.8123C79.8783 38.8159 79.9706 38.8265 80.0663 38.8442C80.4493 38.9045 80.7773 39.0428 81.0504 39.2591C81.327 39.4719 81.538 39.7414 81.6834 40.0677C81.8288 40.3904 81.9015 40.7468 81.9015 41.1369C81.9015 41.5305 81.8288 41.8905 81.6834 42.2168C81.538 42.5395 81.327 42.809 81.0504 43.0253C80.7773 43.2381 80.4493 43.3746 80.0663 43.4349C79.9706 43.4491 79.8783 43.4597 79.7897 43.4668C79.7046 43.4739 79.6248 43.4775 79.5503 43.4775H77.2736V46.4617H76.6619ZM77.2736 42.8764H79.5397C79.6035 42.8764 79.6762 42.8728 79.7578 42.8657C79.8429 42.8586 79.928 42.848 80.0131 42.8338C80.2897 42.7771 80.5202 42.6654 80.7046 42.4987C80.889 42.3285 81.0274 42.1245 81.1196 41.8869C81.2118 41.6493 81.2579 41.3993 81.2579 41.1369C81.2579 40.8745 81.2118 40.6262 81.1196 40.3922C81.0274 40.1546 80.889 39.9524 80.7046 39.7858C80.5202 39.6155 80.2897 39.5021 80.0131 39.4453C79.928 39.4276 79.8429 39.4152 79.7578 39.4081C79.6762 39.401 79.6035 39.3974 79.5397 39.3974H77.2736V42.8764Z" fill="#E3E5E9"/>
        <path d="M88.8516 46.4617H88.2346V39.8815L83.7981 46.4617H83.1811V38.8017H83.7981V45.3712L88.2346 38.8017H88.8516V46.4617Z" fill="#E3E5E9"/>
        <path d="M90.5523 46.4617V38.8017H93.4833C93.8804 38.8017 94.2369 38.8868 94.5525 39.057C94.8716 39.2237 95.1217 39.4524 95.3025 39.7432C95.4869 40.034 95.5791 40.362 95.5791 40.7273C95.5791 41.1387 95.4656 41.5093 95.2387 41.8391C95.0117 42.1653 94.7103 42.3941 94.3344 42.5253L94.3131 42.2699C94.8167 42.4224 95.2156 42.6778 95.51 43.0359C95.8079 43.3906 95.9568 43.8303 95.9568 44.3552C95.9568 44.7949 95.8593 45.1726 95.6642 45.4882C95.4727 45.8003 95.2068 46.0414 94.8663 46.2116C94.5259 46.3783 94.1393 46.4617 93.7067 46.4617H90.5523ZM91.1693 45.8606H93.5045C93.845 45.8606 94.15 45.8021 94.4195 45.685C94.6926 45.568 94.9071 45.3995 95.0631 45.1797C95.2227 44.9598 95.3025 44.6938 95.3025 44.3818C95.3025 44.0732 95.2298 43.7949 95.0844 43.5466C94.9426 43.2948 94.7493 43.0962 94.5046 42.9508C94.2599 42.8019 93.9851 42.7274 93.6801 42.7274H91.1693V45.8606ZM91.1693 42.137H93.4779C93.7439 42.137 93.9868 42.0749 94.2067 41.9508C94.4301 41.8267 94.6074 41.6582 94.7386 41.4454C94.8699 41.2291 94.9355 40.9826 94.9355 40.706C94.9355 40.3124 94.7954 39.995 94.5152 39.7539C94.2386 39.5127 93.8929 39.3921 93.4779 39.3921H91.1693V42.137Z" fill="#E3E5E9"/>
        <path d="M102.898 46.4617H102.281V39.8815L97.8444 46.4617H97.2273V38.8017H97.8444V45.3712L102.281 38.8017H102.898V46.4617Z" fill="#E3E5E9"/>
        <path d="M104.067 46.4617V45.8872C104.272 45.912 104.439 45.9084 104.567 45.8765C104.698 45.8411 104.804 45.7613 104.886 45.6371C104.967 45.513 105.036 45.3251 105.093 45.0733C105.153 44.8215 105.214 44.4864 105.274 44.0679C105.338 43.6565 105.393 43.254 105.439 42.8604C105.485 42.4632 105.526 42.0572 105.561 41.6423C105.597 41.2238 105.629 40.7823 105.657 40.3177C105.685 39.8531 105.71 39.3478 105.732 38.8017H110.466V46.4617H109.854V39.3974H106.343C106.318 39.8088 106.294 40.2149 106.269 40.6156C106.244 41.0128 106.216 41.4135 106.184 41.8178C106.152 42.2221 106.113 42.637 106.067 43.0625C106.024 43.4846 105.967 43.9296 105.896 44.3977C105.847 44.7311 105.786 45.0431 105.716 45.3339C105.648 45.6212 105.551 45.8659 105.423 46.068C105.295 46.2702 105.123 46.4085 104.907 46.4829C104.691 46.561 104.411 46.5539 104.067 46.4617Z" fill="#E3E5E9"/>
        <path d="M112.167 46.4617V38.8017H116.901V39.3974H112.779V42.3072H116.263V42.903H112.779V45.8659H116.901V46.4617H112.167Z" fill="#E3E5E9"/>
        <path d="M118.395 46.4617V38.8017H123.13V39.3974H119.007V46.4617H118.395Z" fill="#E3E5E9"/>
        <path d="M129.868 46.4617H129.251V39.8815L124.815 46.4617H124.198V38.8017H124.815V45.3712L129.251 38.8017H129.868V46.4617Z" fill="#E3E5E9"/>
        <path d="M131.569 46.4617V38.8017H134.457C134.532 38.8017 134.612 38.8052 134.697 38.8123C134.785 38.8159 134.878 38.8265 134.973 38.8442C135.356 38.9045 135.684 39.0428 135.957 39.2591C136.234 39.4719 136.445 39.7414 136.59 40.0677C136.736 40.3904 136.809 40.7468 136.809 41.1369C136.809 41.5305 136.736 41.8905 136.59 42.2168C136.445 42.5395 136.234 42.809 135.957 43.0253C135.684 43.2381 135.356 43.3746 134.973 43.4349C134.878 43.4491 134.785 43.4597 134.697 43.4668C134.612 43.4739 134.532 43.4775 134.457 43.4775H132.181V46.4617H131.569ZM132.181 42.8764H134.447C134.511 42.8764 134.583 42.8728 134.665 42.8657C134.75 42.8586 134.835 42.848 134.92 42.8338C135.197 42.7771 135.427 42.6654 135.612 42.4987C135.796 42.3285 135.934 42.1245 136.027 41.8869C136.119 41.6493 136.165 41.3993 136.165 41.1369C136.165 40.8745 136.119 40.6262 136.027 40.3922C135.934 40.1546 135.796 39.9524 135.612 39.7858C135.427 39.6155 135.197 39.5021 134.92 39.4453C134.835 39.4276 134.75 39.4152 134.665 39.4081C134.583 39.401 134.511 39.3974 134.447 39.3974H132.181V42.8764Z" fill="#E3E5E9"/>
        <path d="M141.147 46.6212C140.384 46.6212 139.744 46.4528 139.226 46.1159C138.709 45.7755 138.319 45.3056 138.056 44.7062C137.794 44.1069 137.663 43.4154 137.663 42.6317C137.663 41.8479 137.794 41.1564 138.056 40.5571C138.319 39.9578 138.709 39.4897 139.226 39.1528C139.744 38.8123 140.384 38.6421 141.147 38.6421C141.909 38.6421 142.548 38.8123 143.062 39.1528C143.58 39.4897 143.97 39.9578 144.232 40.5571C144.494 41.1564 144.626 41.8479 144.626 42.6317C144.626 43.4154 144.494 44.1069 144.232 44.7062C143.97 45.3056 143.58 45.7755 143.062 46.1159C142.548 46.4528 141.909 46.6212 141.147 46.6212ZM141.147 46.0201C141.774 46.0237 142.298 45.8818 142.716 45.5946C143.134 45.3038 143.448 44.9031 143.658 44.3924C143.867 43.8817 143.971 43.2948 143.971 42.6317C143.971 41.9685 143.867 41.3816 143.658 40.8709C143.448 40.3603 143.134 39.9613 142.716 39.6741C142.298 39.3868 141.774 39.2432 141.147 39.2432C140.519 39.2396 139.996 39.3815 139.578 39.6687C139.163 39.956 138.851 40.3567 138.641 40.8709C138.432 41.3816 138.324 41.9685 138.317 42.6317C138.31 43.2948 138.411 43.8817 138.62 44.3924C138.833 44.8995 139.15 45.2985 139.572 45.5893C139.994 45.8765 140.519 46.0201 141.147 46.0201Z" fill="#E3E5E9"/>
        <path d="M145.906 46.4617V38.8017H148.837C149.234 38.8017 149.591 38.8868 149.906 39.057C150.225 39.2237 150.475 39.4524 150.656 39.7432C150.841 40.034 150.933 40.362 150.933 40.7273C150.933 41.1387 150.819 41.5093 150.592 41.8391C150.365 42.1653 150.064 42.3941 149.688 42.5253L149.667 42.2699C150.17 42.4224 150.569 42.6778 150.864 43.0359C151.162 43.3906 151.311 43.8303 151.311 44.3552C151.311 44.7949 151.213 45.1726 151.018 45.4882C150.826 45.8003 150.561 46.0414 150.22 46.2116C149.88 46.3783 149.493 46.4617 149.06 46.4617H145.906ZM146.523 45.8606H148.858C149.199 45.8606 149.504 45.8021 149.773 45.685C150.046 45.568 150.261 45.3995 150.417 45.1797C150.576 44.9598 150.656 44.6938 150.656 44.3818C150.656 44.0732 150.584 43.7949 150.438 43.5466C150.296 43.2948 150.103 43.0962 149.858 42.9508C149.614 42.8019 149.339 42.7274 149.034 42.7274H146.523V45.8606ZM146.523 42.137H148.832C149.098 42.137 149.341 42.0749 149.56 41.9508C149.784 41.8267 149.961 41.6582 150.092 41.4454C150.224 41.2291 150.289 40.9826 150.289 40.706C150.289 40.3124 150.149 39.995 149.869 39.7539C149.592 39.5127 149.247 39.3921 148.832 39.3921H146.523V42.137Z" fill="#E3E5E9"/>
        <path d="M152.049 46.4617L154.762 38.8017H155.523L158.236 46.4617H157.587L154.98 39.1208H155.289L152.698 46.4617H152.049ZM153.172 44.536V43.9562H157.108V44.536H153.172Z" fill="#E3E5E9"/>
        <path d="M159.402 46.4617V38.8017H160.013V42.3338H164.45V38.8017H165.067V46.4617H164.45V42.9296H160.013V46.4617H159.402Z" fill="#E3E5E9"/>
        <path d="M166.773 46.4617V38.8017H167.384V42.3338H171.821V38.8017H172.438V46.4617H171.821V42.9296H167.384V46.4617H166.773Z" fill="#E3E5E9"/>
        <path d="M177.203 46.6212C176.44 46.6212 175.8 46.4528 175.282 46.1159C174.765 45.7755 174.374 45.3056 174.112 44.7062C173.85 44.1069 173.718 43.4154 173.718 42.6317C173.718 41.8479 173.85 41.1564 174.112 40.5571C174.374 39.9578 174.765 39.4897 175.282 39.1528C175.8 38.8123 176.44 38.6421 177.203 38.6421C177.965 38.6421 178.603 38.8123 179.118 39.1528C179.635 39.4897 180.025 39.9578 180.288 40.5571C180.55 41.1564 180.681 41.8479 180.681 42.6317C180.681 43.4154 180.55 44.1069 180.288 44.7062C180.025 45.3056 179.635 45.7755 179.118 46.1159C178.603 46.4528 177.965 46.6212 177.203 46.6212ZM177.203 46.0201C177.83 46.0237 178.353 45.8818 178.772 45.5946C179.19 45.3038 179.504 44.9031 179.713 44.3924C179.923 43.8817 180.027 43.2948 180.027 42.6317C180.027 41.9685 179.923 41.3816 179.713 40.8709C179.504 40.3603 179.19 39.9613 178.772 39.6741C178.353 39.3868 177.83 39.2432 177.203 39.2432C176.575 39.2396 176.052 39.3815 175.633 39.6687C175.218 39.956 174.906 40.3567 174.697 40.8709C174.488 41.3816 174.38 41.9685 174.373 42.6317C174.366 43.2948 174.467 43.8817 174.676 44.3924C174.889 44.8995 175.206 45.2985 175.628 45.5893C176.05 45.8765 176.575 46.0201 177.203 46.0201Z" fill="#E3E5E9"/>
        <path d="M181.962 46.4617V38.8017H182.531L185.669 45.5786L188.776 38.8017H189.366V46.451H188.765V40.2113L185.914 46.4617H185.414L182.558 40.2113V46.4617H181.962Z" fill="#E3E5E9"/>
        <path d="M192.451 46.4617L193.27 44.7275L190.52 38.8017H191.19L193.589 44.0573L196.026 38.8017H196.68L193.137 46.4617H192.451Z" fill="#E3E5E9"/>
        <path d="M199.136 46.4617L201.806 42.5785L199.2 38.8017H199.939L202.162 42.0731L204.391 38.8017H205.131L202.524 42.5785L205.195 46.4617H204.455L202.162 43.0945L199.875 46.4617H199.136Z" fill="#E3E5E9"/>
        <path d="M208.999 46.6212C208.236 46.6212 207.596 46.4528 207.078 46.1159C206.561 45.7755 206.171 45.3056 205.908 44.7062C205.646 44.1069 205.514 43.4154 205.514 42.6317C205.514 41.8479 205.646 41.1564 205.908 40.5571C206.171 39.9578 206.561 39.4897 207.078 39.1528C207.596 38.8123 208.236 38.6421 208.999 38.6421C209.761 38.6421 210.399 38.8123 210.914 39.1528C211.431 39.4897 211.822 39.9578 212.084 40.5571C212.346 41.1564 212.478 41.8479 212.478 42.6317C212.478 43.4154 212.346 44.1069 212.084 44.7062C211.822 45.3056 211.431 45.7755 210.914 46.1159C210.399 46.4528 209.761 46.6212 208.999 46.6212ZM208.999 46.0201C209.626 46.0237 210.149 45.8818 210.568 45.5946C210.986 45.3038 211.3 44.9031 211.509 44.3924C211.719 43.8817 211.823 43.2948 211.823 42.6317C211.823 41.9685 211.719 41.3816 211.509 40.8709C211.3 40.3603 210.986 39.9613 210.568 39.6741C210.149 39.3868 209.626 39.2432 208.999 39.2432C208.371 39.2396 207.848 39.3815 207.429 39.6687C207.015 39.956 206.702 40.3567 206.493 40.8709C206.284 41.3816 206.176 41.9685 206.169 42.6317C206.162 43.2948 206.263 43.8817 206.472 44.3924C206.685 44.8995 207.002 45.2985 207.424 45.5893C207.846 45.8765 208.371 46.0201 208.999 46.0201Z" fill="#E3E5E9"/>
        <path d="M213.018 46.4617V45.8872C213.224 45.912 213.391 45.9084 213.518 45.8765C213.649 45.8411 213.756 45.7613 213.837 45.6371C213.919 45.513 213.988 45.3251 214.045 45.0733C214.105 44.8215 214.165 44.4864 214.226 44.0679C214.29 43.6565 214.344 43.254 214.391 42.8604C214.437 42.4632 214.477 42.0572 214.513 41.6423C214.548 41.2238 214.58 40.7823 214.609 40.3177C214.637 39.8531 214.662 39.3478 214.683 38.8017H219.417V46.4617H218.806V39.3974H215.295C215.27 39.8088 215.245 40.2149 215.22 40.6156C215.196 41.0128 215.167 41.4135 215.135 41.8178C215.103 42.2221 215.064 42.637 215.018 43.0625C214.976 43.4846 214.919 43.9296 214.848 44.3977C214.798 44.7311 214.738 45.0431 214.667 45.3339C214.6 45.6212 214.502 45.8659 214.375 46.068C214.247 46.2702 214.075 46.4085 213.859 46.4829C213.642 46.561 213.362 46.5539 213.018 46.4617Z" fill="#E3E5E9"/>
        <path d="M224.177 46.6212C223.415 46.6212 222.775 46.4528 222.257 46.1159C221.739 45.7755 221.349 45.3056 221.087 44.7062C220.824 44.1069 220.693 43.4154 220.693 42.6317C220.693 41.8479 220.824 41.1564 221.087 40.5571C221.349 39.9578 221.739 39.4897 222.257 39.1528C222.775 38.8123 223.415 38.6421 224.177 38.6421C224.94 38.6421 225.578 38.8123 226.092 39.1528C226.61 39.4897 227 39.9578 227.263 40.5571C227.525 41.1564 227.656 41.8479 227.656 42.6317C227.656 43.4154 227.525 44.1069 227.263 44.7062C227 45.3056 226.61 45.7755 226.092 46.1159C225.578 46.4528 224.94 46.6212 224.177 46.6212ZM224.177 46.0201C224.805 46.0237 225.328 45.8818 225.747 45.5946C226.165 45.3038 226.479 44.9031 226.688 44.3924C226.897 43.8817 227.002 43.2948 227.002 42.6317C227.002 41.9685 226.897 41.3816 226.688 40.8709C226.479 40.3603 226.165 39.9613 225.747 39.6741C225.328 39.3868 224.805 39.2432 224.177 39.2432C223.55 39.2396 223.027 39.3815 222.608 39.6687C222.193 39.956 221.881 40.3567 221.672 40.8709C221.463 41.3816 221.355 41.9685 221.347 42.6317C221.34 43.2948 221.441 43.8817 221.651 44.3924C221.863 44.8995 222.181 45.2985 222.603 45.5893C223.025 45.8765 223.55 46.0201 224.177 46.0201Z" fill="#E3E5E9"/>
        <path d="M228.394 47.7383V45.8659C228.706 45.8659 228.954 45.7861 229.138 45.6265C229.323 45.4669 229.463 45.2559 229.559 44.9935C229.654 44.7275 229.725 44.435 229.771 44.1158C229.821 43.7966 229.862 43.4757 229.894 43.153C229.947 42.6707 229.99 42.2061 230.021 41.7593C230.053 41.3124 230.08 40.8514 230.101 40.3762C230.126 39.8975 230.153 39.3726 230.181 38.8017H234.814V45.8659H235.357V47.7383H234.74V46.4617H229.005V47.7383H228.394ZM229.718 45.8659H234.203V39.3974H230.766C230.745 39.8478 230.722 40.2911 230.697 40.7273C230.676 41.16 230.649 41.5962 230.617 42.0359C230.585 42.4721 230.546 42.9225 230.5 43.387C230.458 43.8019 230.408 44.1708 230.351 44.4935C230.298 44.8126 230.222 45.0875 230.122 45.318C230.023 45.5449 229.888 45.7276 229.718 45.8659Z" fill="#E3E5E9"/>
        <path d="M238.127 46.4617L238.946 44.7275L236.196 38.8017H236.866L239.266 44.0573L241.702 38.8017H242.356L238.813 46.4617H238.127Z" fill="#E3E5E9"/>
    </symbol>

    <symbol id="close-popup" width="25" height="26" viewBox="0 0 25 26" fill="none" xmlns="http://www.w3.org/2000/svg">
        <rect y="23.2273" width="32.1411" height="3.21411" transform="rotate(-45 0 23.2273)" fill="#56585B"/>
        <rect x="2.27246" y="0.5" width="32.1411" height="3.21411" transform="rotate(45 2.27246 0.5)" fill="#56585B"/>
    </symbol>

    <symbol id="burger" width="20" height="14" viewBox="0 0 20 14" fill="none" xmlns="http://www.w3.org/2000/svg">
        <path d="M0 0H20V2H0V0Z" fill="#FEFDFC"/>
        <path d="M0 6H20V8H0V6Z" fill="#FEFDFC"/>
        <path d="M0 12H20V14H0V12Z" fill="#FEFDFC"/>
    </symbol>

    <symbol id="close-burger" width="13" height="13" viewBox="0 0 13 13" fill="none" xmlns="http://www.w3.org/2000/svg">
        <rect x="0.388672" y="11.1094" width="15.4277" height="1.54277" transform="rotate(-45 0.388672 11.1094)" fill="#56585B"/>
        <rect x="1.47949" y="0.200195" width="15.4277" height="1.54277" transform="rotate(45 1.47949 0.200195)" fill="#56585B"/>
    </symbol>

</svg>
